<svg width="148" height="19" viewBox="0 0 148 19" fill="none" xmlns="http://www.w3.org/2000/svg">
<path fill-rule="evenodd" clip-rule="evenodd" d="M27.8245 4.70019H25.4931V9.19815H28.1207C30.8332 9.19815 32.2319 8.43702 32.2319 6.96113C32.2319 5.50804 31.0033 4.70019 27.8245 4.70019ZM31.8508 18.0314L27.231 11.8972H25.4931V18.0314H20.1953V1.88672H28.0784C33.8429 1.88672 37.53 3.57046 37.53 6.91515C37.53 9.17572 35.4103 10.5817 32.5288 11.3193L37.6145 18.0314H31.8508Z" fill="white"/>
<path fill-rule="evenodd" clip-rule="evenodd" d="M50.7988 11.9425V18.0314H45.501V11.9892L37.8711 1.88672H43.7209L46.0096 5.1615C46.9846 6.56786 47.9599 8.16039 48.2135 8.92114C48.5097 8.16039 49.4846 6.49907 50.4173 5.1615L52.7061 1.88672H58.4702L50.7988 11.9425Z" fill="white"/>
<path fill-rule="evenodd" clip-rule="evenodd" d="M67.485 10.0516C66.9767 8.80637 66.2983 6.93758 66.087 6.13122C65.8739 6.96113 65.2811 8.69048 64.7302 10.0053L63.9247 11.9664H68.2905L67.485 10.0516ZM70.831 18.0314L69.4334 14.6643H62.7803L61.3816 18.0314H55.957L63.5436 1.88672H68.7142L76.2993 18.0314H70.831Z" fill="white"/>
<path fill-rule="evenodd" clip-rule="evenodd" d="M90.7153 18.0314L85.248 10.8352C84.4848 9.82095 83.5524 8.50581 83.0019 7.56076C83.0442 8.55291 83.0861 10.2127 83.0861 11.2277V18.0314H78.2539V1.88672H83.5951L88.8076 8.96786C89.5286 9.93572 90.5881 11.4359 91.139 12.3357C91.0964 11.3432 90.9699 9.59067 90.9699 8.57497V1.88672H95.801V18.0314H90.7153Z" fill="white"/>
<path fill-rule="evenodd" clip-rule="evenodd" d="M109.558 10.0516C109.049 8.80637 108.371 6.93758 108.159 6.13122C107.947 6.96113 107.354 8.69048 106.802 10.0053L105.997 11.9664H110.363L109.558 10.0516ZM112.907 18.0314L111.507 14.6643H104.853L103.455 18.0314H98.0293L105.615 1.88672H110.787L118.374 18.0314H112.907Z" fill="white"/>
<path fill-rule="evenodd" clip-rule="evenodd" d="M120.449 18.0314H125.747V1.88672H120.449V18.0314Z" fill="white"/>
<mask id="mask0_2719_16411" style="mask-type:alpha" maskUnits="userSpaceOnUse" x="0" y="0" width="148" height="18">
<path fill-rule="evenodd" clip-rule="evenodd" d="M0 0.535156H147.72V17.9475H0V0.535156Z" fill="white"/>
</mask>
<g mask="url(#mask0_2719_16411)">
<path fill-rule="evenodd" clip-rule="evenodd" d="M137.93 4.70019H135.599V9.19815H138.226C140.939 9.19815 142.337 8.43702 142.337 6.96113C142.337 5.50804 141.109 4.70019 137.93 4.70019ZM141.956 18.0314L137.336 11.8972H135.599V18.0314H130.301V1.88672H138.185C143.948 1.88672 147.635 3.57046 147.635 6.91515C147.635 9.17572 145.518 10.5817 142.634 11.3193L147.72 18.0314H141.956Z" fill="white"/>
</g>
<path fill-rule="evenodd" clip-rule="evenodd" d="M11.5206 1.3129C12.6188 1.69196 13.7801 1.98318 14.965 2.12262L15.7907 2.13122L15.8168 2.10729C16.3102 2.1215 16.6758 1.89682 17.1558 1.78692C17.2068 1.77421 17.3314 1.74243 17.3838 1.81496C17.4076 1.90991 17.3704 2.01271 17.2664 2.08337C16.6783 2.54916 15.9764 2.89571 15.3154 3.14543V3.1316C15.0986 3.17496 14.8664 3.27103 14.6413 3.34767C13.8264 3.60337 12.8995 3.763 12.0228 3.69795C10.3445 3.60898 8.91835 2.98767 7.43622 3.06131C5.98155 2.97346 4.59768 3.54879 3.8232 4.6845C3.42621 5.27852 3.10977 5.90544 3.01152 6.59478C3.05559 7.21871 3.90159 7.45797 4.21875 7.9746C4.40081 8.28638 4.49184 8.62993 4.62874 8.95405C4.98022 9.60638 5.32845 10.2587 5.76048 10.8729L5.75072 10.886C6.00431 11.2965 6.40708 11.6524 6.88354 11.8935C7.50161 12.3499 8.04742 12.9238 8.37181 13.5395L8.35447 13.5492C8.72003 14.1514 8.92449 14.7765 9.20733 15.4045C9.33376 15.7903 9.47392 16.129 9.58265 16.504C9.61913 16.5391 9.61914 16.5952 9.64117 16.6442C9.74159 16.941 9.82684 17.2576 9.94858 17.5331C9.89656 17.5754 9.98976 17.59 9.9782 17.6303C9.9847 17.7974 10.1426 18.0483 9.93268 18.1589C9.62708 17.8801 9.46742 17.4711 9.30234 17.1731C8.94255 16.5223 8.52967 15.8943 8.08535 15.2756L8.09836 15.2629C7.82491 14.9092 7.52436 14.5092 7.2119 14.1421C5.89811 12.6359 3.96516 11.7309 2.55276 10.2972L2.53975 10.3099C2.41874 10.1982 2.3418 10.0501 2.24426 9.92339L2.25546 9.90956C2.08352 9.65984 1.98129 9.37573 1.8144 9.1204L1.82596 9.10732C1.38851 8.43367 0.968401 7.71815 0.685557 7.01011C0.626677 6.69647 0.523004 6.42656 0.499885 6.06544L0.466652 5.94693C0.484714 5.61871 -0.30349 5.42768 0.130708 4.79777C0.402714 4.49384 1.45714 4.11926 1.8144 3.54879C1.82343 3.46319 1.84258 3.36188 1.77105 3.28524C1.77105 3.22393 1.70964 3.15963 1.66702 3.09645C1.46798 2.84038 0.927943 3.043 0.936612 2.6643C0.992242 2.66206 0.939863 2.61197 0.976348 2.58991C0.945282 2.40374 0.933 2.28 0.983211 2.12225C1.09194 1.81234 1.1985 1.45458 1.17683 1.14168C1.1985 1.0243 1.31265 0.953644 1.42716 0.908036C1.65149 0.849344 1.84763 0.81869 2.06762 0.788036L2.0958 0.811213C2.60405 0.768222 3.21417 0.807101 3.55264 1.21907C3.69858 1.53271 3.58407 1.90468 3.50243 2.22056C3.47678 2.40225 3.28425 2.55066 3.32868 2.74206C3.39587 2.81272 3.53638 2.8086 3.62525 2.76935C4.39322 2.28823 5.0633 1.61907 5.62213 0.944672C6.13724 0.445605 6.89618 0.272894 7.59408 0.376445C9.00793 0.489717 10.2029 0.980186 11.5206 1.3129Z" fill="#F1C933"/>
<path fill-rule="evenodd" clip-rule="evenodd" d="M7.87838 3.94761C8.07778 4.22237 7.81083 4.4635 7.73136 4.70537C6.90198 5.99434 6.61191 7.45566 6.06176 8.83622C6.01985 8.88445 5.93822 8.89828 5.8797 8.87921C5.73304 8.77155 5.73304 8.59211 5.74929 8.43585C5.86055 6.93865 6.24273 5.53303 6.85863 4.19471C7.00276 3.9805 7.2484 3.73751 7.56447 3.78798C7.6844 3.81452 7.7906 3.85751 7.87838 3.94761Z" fill="#F1C933"/>
<path fill-rule="evenodd" clip-rule="evenodd" d="M10.0629 4.3401C10.1684 4.83244 9.82777 5.23581 9.67678 5.67655C8.86979 7.34497 7.90061 8.97638 7.42162 10.7588C7.39886 10.816 7.36743 10.8919 7.3035 10.9177C7.23486 10.9371 7.17707 10.9012 7.15936 10.8515C6.99789 10.1431 7.18465 9.40591 7.36021 8.73189C7.82005 7.23544 8.37671 5.70422 9.15516 4.31169C9.24547 4.24066 9.25919 4.1801 9.3719 4.1472C9.6421 4.11842 9.91302 4.13861 10.0629 4.3401Z" fill="#F1C933"/>
<path fill-rule="evenodd" clip-rule="evenodd" d="M12.4014 4.42776C12.6185 4.59785 12.5065 4.91785 12.4209 5.1171C11.4749 7.28534 9.94253 9.15413 9.30857 11.4282C9.13338 11.91 9.01923 12.4087 8.87402 12.8943C8.84909 12.9822 8.72483 12.9848 8.63741 12.9627C8.55324 12.7568 8.57745 12.4951 8.57745 12.2719C8.77757 10.4446 9.19912 8.66964 10.0617 7.07973C10.454 6.28496 10.8333 5.57019 11.2444 4.79449C11.36 4.57505 11.5551 4.37654 11.8379 4.30476C12.0463 4.29168 12.2461 4.3429 12.4014 4.42776Z" fill="#F1C933"/>
<path fill-rule="evenodd" clip-rule="evenodd" d="M14.993 4.53927C15.1444 4.80207 14.9984 5.09179 14.9294 5.34301C14.328 7.08507 13.202 8.52769 12.2979 10.115C11.5234 11.4193 11.0177 12.8675 10.5018 14.2836C10.3241 14.7083 10.2598 15.1804 10.0434 15.5845C10.0257 15.6283 9.97011 15.6017 9.93254 15.6133C9.79888 15.4978 9.81586 15.3315 9.78516 15.1845C9.88775 13.4126 10.5477 11.8111 11.1679 10.2114C11.9439 8.4275 12.9846 6.72395 13.6915 4.87945C13.7901 4.64656 13.9848 4.36207 14.285 4.27422C14.5859 4.22749 14.8135 4.33964 14.993 4.53927Z" fill="#F1C933"/>
</svg>
